<svg xmlns="http://www.w3.org/2000/svg" xmlns:xlink="http://www.w3.org/1999/xlink" width="500" zoomAndPan="magnify" viewBox="0 0 375 374.999991" height="500" preserveAspectRatio="xMidYMid meet" version="1.0"><defs><clipPath id="3a82159068"><path d="M 0 71.601562 L 375 71.601562 L 375 375 L 0 375 Z M 0 71.601562 " clip-rule="nonzero"/></clipPath><clipPath id="7bf40887dc"><path d="M 0 0.601562 L 375 0.601562 L 375 304 L 0 304 Z M 0 0.601562 " clip-rule="nonzero"/></clipPath><clipPath id="89d1b4bbfd"><rect x="0" width="375" y="0" height="304"/></clipPath><clipPath id="e9ceb47680"><path d="M 138.664062 37.5 L 236.335938 37.5 L 236.335938 135.175781 L 138.664062 135.175781 Z M 138.664062 37.5 " clip-rule="nonzero"/></clipPath><clipPath id="3abd848a78"><path d="M 187.5 37.5 C 160.527344 37.5 138.664062 59.363281 138.664062 86.335938 C 138.664062 113.308594 160.527344 135.175781 187.5 135.175781 C 214.472656 135.175781 236.335938 113.308594 236.335938 86.335938 C 236.335938 59.363281 214.472656 37.5 187.5 37.5 Z M 187.5 37.5 " clip-rule="nonzero"/></clipPath><clipPath id="1d8e575eb7"><path d="M 0.664062 0.5 L 98.335938 0.5 L 98.335938 98.175781 L 0.664062 98.175781 Z M 0.664062 0.5 " clip-rule="nonzero"/></clipPath><clipPath id="f74cf94348"><path d="M 49.5 0.5 C 22.527344 0.5 0.664062 22.363281 0.664062 49.335938 C 0.664062 76.308594 22.527344 98.175781 49.5 98.175781 C 76.472656 98.175781 98.335938 76.308594 98.335938 49.335938 C 98.335938 22.363281 76.472656 0.5 49.5 0.5 Z M 49.5 0.5 " clip-rule="nonzero"/></clipPath><clipPath id="3a3301afa5"><rect x="0" width="99" y="0" height="99"/></clipPath><clipPath id="cc12595401"><path d="M 0.664062 0.824219 L 98.335938 0.824219 L 98.335938 98.5 L 0.664062 98.5 Z M 0.664062 0.824219 " clip-rule="nonzero"/></clipPath><clipPath id="23fb81ae14"><path d="M 49.5 0.824219 C 22.527344 0.824219 0.664062 22.691406 0.664062 49.664062 C 0.664062 76.636719 22.527344 98.5 49.5 98.5 C 76.472656 98.5 98.335938 76.636719 98.335938 49.664062 C 98.335938 22.691406 76.472656 0.824219 49.5 0.824219 Z M 49.5 0.824219 " clip-rule="nonzero"/></clipPath><clipPath id="4991aeb538"><path d="M 0.664062 0.824219 L 98.335938 0.824219 L 98.335938 98.5 L 0.664062 98.5 Z M 0.664062 0.824219 " clip-rule="nonzero"/></clipPath><clipPath id="76c499be6d"><path d="M 49.5 0.824219 C 22.527344 0.824219 0.664062 22.691406 0.664062 49.664062 C 0.664062 76.636719 22.527344 98.5 49.5 98.5 C 76.472656 98.5 98.335938 76.636719 98.335938 49.664062 C 98.335938 22.691406 76.472656 0.824219 49.5 0.824219 Z M 49.5 0.824219 " clip-rule="nonzero"/></clipPath><clipPath id="9530a935b0"><rect x="0" width="99" y="0" height="99"/></clipPath><clipPath id="f749830f7f"><path d="M 10.414062 10.578125 L 88.554688 10.578125 L 88.554688 88.71875 L 10.414062 88.71875 Z M 10.414062 10.578125 " clip-rule="nonzero"/></clipPath><clipPath id="3386847838"><rect x="0" width="99" y="0" height="99"/></clipPath></defs><rect x="-37.5" width="450" fill="#ffffff" y="-37.499999" height="449.999989" fill-opacity="1"/><rect x="-37.5" width="450" fill="#f1d79a" y="-37.499999" height="449.999989" fill-opacity="1"/><g clip-path="url(#3a82159068)"><g transform="matrix(1, 0, 0, 1, 0, 71)"><g clip-path="url(#89d1b4bbfd)"><g clip-path="url(#7bf40887dc)"><path fill="#002a4c" d="M -81.9375 303.988281 C -31.417969 218.710938 1.921875 139.03125 108.949219 116.460938 C 162.832031 105.824219 214.859375 116.765625 267.664062 113.535156 C 338.472656 109.011719 367.371094 59.136719 393.644531 0.601562 L 393.644531 303.988281 Z M -81.9375 303.988281 " fill-opacity="1" fill-rule="nonzero"/></g></g></g></g><g clip-path="url(#e9ceb47680)"><g clip-path="url(#3abd848a78)"><g transform="matrix(1, 0, 0, 1, 138, 37)"><g clip-path="url(#3a3301afa5)"><g clip-path="url(#1d8e575eb7)"><g clip-path="url(#f74cf94348)"><path fill="#f6e3a8" d="M 0.664062 0.5 L 98.335938 0.5 L 98.335938 98.175781 L 0.664062 98.175781 Z M 0.664062 0.5 " fill-opacity="1" fill-rule="nonzero"/></g></g></g></g></g></g><g transform="matrix(1, 0, 0, 1, 138, 239)"><g clip-path="url(#3386847838)"><g clip-path="url(#cc12595401)"><g clip-path="url(#23fb81ae14)"><g transform="matrix(1, 0, 0, 1, 0.000000000000028422, 0)"><g clip-path="url(#9530a935b0)"><g clip-path="url(#4991aeb538)"><g clip-path="url(#76c499be6d)"><path fill="#094063" d="M 0.664062 0.824219 L 98.335938 0.824219 L 98.335938 98.5 L 0.664062 98.5 Z M 0.664062 0.824219 " fill-opacity="1" fill-rule="nonzero"/></g></g></g></g></g></g><g clip-path="url(#f749830f7f)"><path fill="#f6e3a8" d="M 88.308594 49.96875 C 57.460938 53.777344 53.613281 57.625 49.804688 88.472656 C 49.785156 88.652344 49.679688 88.742188 49.496094 88.742188 C 49.316406 88.742188 49.210938 88.652344 49.191406 88.472656 C 45.382812 57.625 41.535156 53.777344 10.6875 49.96875 C 10.503906 49.945312 10.414062 49.84375 10.414062 49.660156 C 10.414062 49.476562 10.503906 49.375 10.6875 49.351562 C 41.535156 45.546875 45.382812 41.699219 49.1875 10.851562 C 49.210938 10.667969 49.316406 10.578125 49.496094 10.578125 C 49.679688 10.578125 49.785156 10.667969 49.804688 10.851562 C 53.613281 41.699219 57.460938 45.546875 88.308594 49.351562 C 88.492188 49.375 88.582031 49.476562 88.582031 49.660156 C 88.582031 49.84375 88.492188 49.945312 88.308594 49.96875 Z M 88.308594 49.96875 " fill-opacity="1" fill-rule="nonzero"/></g></g></g></svg>
